<svg id="Layer_1" data-name="Layer 1" xmlns="http://www.w3.org/2000/svg" viewBox="0 0 460 360"><defs><style>.cls-1{fill:none;stroke:#231f20;stroke-linecap:round;stroke-miterlimit:10;stroke-width:28px;}.cls-2{fill:#231f20;}</style></defs><line class="cls-1" x1="440.13" y1="95.18" x2="19.87" y2="95.18"/><line class="cls-1" x1="440.13" y1="261.92" x2="19.87" y2="261.92"/><path class="cls-2" d="M229.87,146.9l13.95,14c0-.31.05-.62.05-.94V95.18a14,14,0,0,0-28,0v64.74c0,.32,0,.63,0,.94Z"/><path class="cls-2" d="M349.87,146.9l13.95,14c0-.31.05-.62.05-.94V95.18a14,14,0,0,0-28,0v64.74c0,.32,0,.63.05.94Z"/><path class="cls-2" d="M229.87,177.42s-14,16.45-14,19.76v64.74a14,14,0,0,0,28,0V197.18C243.87,193.87,229.87,177.42,229.87,177.42Z"/><path class="cls-2" d="M349.87,177.42s-14,16.45-14,19.76v64.74a14,14,0,0,0,28,0V197.18C363.87,193.87,349.87,177.42,349.87,177.42Z"/><path class="cls-2" d="M289.87,210.21l13.95-14c0,.31.05.62.05.94v64.73a14,14,0,0,1-28,0V197.19c0-.32,0-.63.05-.94Z"/><path class="cls-2" d="M289.87,179.69s-14-16.46-14-19.77V95.18a14,14,0,0,1,28,0v64.74C303.87,163.23,289.87,179.69,289.87,179.69Z"/><path class="cls-2" d="M169.87,210.21l13.95-14c0,.31.05.62.05.94v64.73a14,14,0,0,1-28,0V197.19c0-.32,0-.63,0-.94Z"/><path class="cls-2" d="M169.87,179.69s-14-16.46-14-19.77V95.18a14,14,0,0,1,28,0v64.74C183.87,163.23,169.87,179.69,169.87,179.69Z"/><path class="cls-2" d="M409.87,210.21l13.95-14c0,.31.05.62.05.94v64.73a14,14,0,0,1-28,0V197.19c0-.32,0-.63.05-.94Z"/><path class="cls-2" d="M409.87,179.69s-14-16.46-14-19.77V95.18a14,14,0,0,1,28,0v64.74C423.87,163.23,409.87,179.69,409.87,179.69Z"/><path class="cls-2" d="M109.87,146.9l13.95,14c0-.31.05-.62.05-.94V95.18a14,14,0,0,0-28,0v64.74c0,.32,0,.63,0,.94Z"/><path class="cls-2" d="M109.87,177.42s-14,16.45-14,19.76v64.74a14,14,0,0,0,28,0V197.18C123.87,193.87,109.87,177.42,109.87,177.42Z"/><path class="cls-2" d="M49.87,210.21l14-14c0,.31,0,.62,0,.94v64.73a14,14,0,0,1-28,0V197.19c0-.32,0-.63.05-.94Z"/><path class="cls-2" d="M49.87,179.69s-14-16.46-14-19.77V95.18a14,14,0,0,1,28,0v64.74C63.87,163.23,49.87,179.69,49.87,179.69Z"/></svg>