<svg xmlns="http://www.w3.org/2000/svg" viewBox="0 0 300 300">
    <defs>
        <style>
            .cls-1{fill:#e6e7e8;}.cls-2,.cls-4,.cls-5,.cls-7{fill:none;stroke-linecap:round;stroke-linejoin:round;}.cls-2{stroke:#2e3192;}.cls-2,.cls-5{stroke-width:6px;}.cls-3{fill:#2e3192;}.cls-4{stroke:#fff57c;stroke-width:30px;}.cls-5{stroke:#be1e2d;}.cls-6{fill:#be1e2d;}.cls-7{stroke:#231f20;stroke-width:21px;}.cls-8{fill:#231f20;}
        </style>
    </defs>
    <g id="backdrops">
        <circle class="cls-1" cx="150" cy="150" r="150"/>
    </g>
    <g id="icons">
        <polyline class="cls-2" points="102.66 108.73 146.46 152.53 89.6 209.4"/>
        <path class="cls-3"
              d="M89.86,95.93c3.79,8.26,7.45,19.55,8,28.22l6.44-13.74L118.08,104C109.41,103.38,98.12,99.72,89.86,95.93Z"/>
        <path class="cls-4" d="M138.35,201.74l10.34,10.33a1.11,1.11,0,0,0,1.58,0l10.33-10.33"/>
        <polyline class="cls-5" points="146.2 95.93 89.6 152.53 133.66 196.6"/>
        <path class="cls-6"
              d="M146.46,209.4c-8.26-3.79-19.55-7.45-28.22-8L132,194.92l6.44-13.74C139,189.85,142.67,201.14,146.46,209.4Z"/>
        <polyline class="cls-2" points="166.6 108.73 210.4 152.53 153.54 209.4"/>
        <path class="cls-3"
              d="M153.8,95.93c3.79,8.26,7.45,19.55,8,28.22l6.44-13.74L182,104C173.35,103.38,162.06,99.72,153.8,95.93Z"/>
        <polyline class="cls-5" points="210.14 95.93 153.54 152.53 197.6 196.6"/>
        <path class="cls-6"
              d="M210.4,209.4c-8.26-3.79-19.54-7.45-28.22-8l13.74-6.44,6.44-13.74C203,189.85,206.61,201.14,210.4,209.4Z"/>
        <line class="cls-7" x1="46.14" y1="76.65" x2="46.14" y2="178.14"/>
        <polygon class="cls-8" points="14.72 168.95 46.14 223.35 77.55 168.95 14.72 168.95"/>
        <line class="cls-7" x1="253.86" y1="223.35" x2="253.86" y2="121.86"/>
        <polygon class="cls-8" points="285.28 131.05 253.86 76.65 222.45 131.05 285.28 131.05"/>
    </g>
</svg>