<svg xmlns="http://www.w3.org/2000/svg" viewBox="0 0 300 300">
    <defs>
        <style>
            .cls-1{fill:#e6e7e8;}.cls-2,.cls-3,.cls-5,.cls-7{fill:none;stroke-linecap:round;}.cls-2{stroke:#fff57c;stroke-miterlimit:10;stroke-width:30px;}.cls-3{stroke:#2e3192;}.cls-3,.cls-5,.cls-7{stroke-linejoin:round;}.cls-3,.cls-5{stroke-width:6px;}.cls-4{fill:#2e3192;}.cls-5{stroke:#be1e2d;}.cls-6{fill:#be1e2d;}.cls-7{stroke:#231f20;stroke-width:21px;}.cls-8{fill:#231f20;}
        </style>
    </defs>
    <g id="backdrops">
        <circle class="cls-1" cx="150" cy="150" r="150"/>
    </g>
    <g id="icons">
        <line class="cls-2" x1="141.44" y1="140.75" x2="156.84" y2="157.39"/>
        <polyline class="cls-3" points="166.6 166.34 210.4 210.14 153.54 267.01"/>
        <path class="cls-4"
              d="M153.8,153.54c3.79,8.26,7.45,19.55,8,28.22L168.28,168,182,161.58C173.35,161,162.06,157.33,153.8,153.54Z"/>
        <polyline class="cls-3" points="134.19 45.8 90.39 89.6 147.25 146.46"/>
        <path class="cls-4"
              d="M147,33c-8.26,3.79-19.55,7.45-28.22,8l13.74,6.44,6.43,13.73C139.54,52.54,143.2,41.25,147,33Z"/>
        <polyline class="cls-5" points="89.86 32.99 146.46 89.6 102.4 133.66"/>
        <path class="cls-6"
              d="M89.6,146.46c3.79-8.26,7.45-19.55,8-28.22L104.08,132l13.73,6.44C109.14,139,97.85,142.67,89.6,146.46Z"/>
        <polyline class="cls-5" points="210.14 153.54 153.54 210.14 197.6 254.2"/>
        <path class="cls-6"
              d="M210.4,267c-8.26-3.79-19.54-7.45-28.22-8.05l13.74-6.44,6.44-13.73C203,247.46,206.61,258.75,210.4,267Z"/>
        <line class="cls-7" x1="46.14" y1="223.35" x2="46.14" y2="121.86"/>
        <polygon class="cls-8" points="77.55 131.05 46.14 76.65 14.72 131.05 77.55 131.05"/>
        <line class="cls-7" x1="253.86" y1="223.35" x2="253.86" y2="121.86"/>
        <polygon class="cls-8" points="285.28 131.05 253.86 76.65 222.45 131.05 285.28 131.05"/>
    </g>
</svg>